<svg width="29" height="28" viewBox="0 0 29 28" fill="none" xmlns="http://www.w3.org/2000/svg">
<path d="M0.928956 2.51282C0.928956 1.12503 2.13104 0 3.61389 0H26.244C27.7269 0 28.929 1.12503 28.929 2.51282C28.929 3.90061 27.7269 5.02564 26.244 5.02564H3.61389C2.13104 5.02564 0.928956 3.90061 0.928956 2.51282Z" fill="#282828"/>
<path d="M0.928956 25.4872C0.928956 24.0994 2.13104 22.9744 3.61389 22.9744H26.244C27.7269 22.9744 28.929 24.0994 28.929 25.4872C28.929 26.875 27.7269 28 26.244 28H3.61389C2.13104 28 0.928956 26.875 0.928956 25.4872Z" fill="#282828"/>
<path d="M0.928956 14C0.928956 12.6122 2.13104 11.4872 3.61389 11.4872H26.244C27.7269 11.4872 28.929 12.6122 28.929 14C28.929 15.3878 27.7269 16.5128 26.244 16.5128H3.61389C2.13104 16.5128 0.928956 15.3878 0.928956 14Z" fill="#282828"/>
</svg>
