<svg width="17" height="19" viewBox="0 0 17 19" fill="none" xmlns="http://www.w3.org/2000/svg">
<path d="M11.7223 9.5L16.5552 4.61377C17.1483 4.01416 17.1483 3.04199 16.5552 2.44189L15.4811 1.35596C14.888 0.756348 13.9265 0.756348 13.3329 1.35596L8.5 6.24219L3.66707 1.35596C3.07401 0.756348 2.11244 0.756348 1.51889 1.35596L0.444801 2.44189C-0.148267 3.0415 -0.148267 4.01367 0.444801 4.61377L5.27773 9.5L0.444801 14.3862C-0.148267 14.9858 -0.148267 15.958 0.444801 16.5581L1.51889 17.644C2.11196 18.2437 3.07401 18.2437 3.66707 17.644L8.5 12.7578L13.3329 17.644C13.926 18.2437 14.888 18.2437 15.4811 17.644L16.5552 16.5581C17.1483 15.9585 17.1483 14.9863 16.5552 14.3862L11.7223 9.5Z" fill="black"/>
</svg>
