<svg width="25" height="29" viewBox="0 0 25 29" fill="none" xmlns="http://www.w3.org/2000/svg">
<g clip-path="url(#clip0_20_29)">
<path d="M0.71596 19.9375H15.3555C15.4495 19.9376 15.5426 19.9188 15.6295 19.8823C15.7164 19.8458 15.7954 19.7923 15.8619 19.7248C15.9284 19.6573 15.9811 19.5772 16.0171 19.489C16.053 19.4008 16.0715 19.3063 16.0714 19.2108V17.0392C16.0715 16.9437 16.053 16.8492 16.0171 16.761C15.9811 16.6728 15.9284 16.5927 15.8619 16.5252C15.7954 16.4577 15.7164 16.4042 15.6295 16.3677C15.5426 16.3312 15.4495 16.3124 15.3555 16.3125H0.71596C0.621918 16.3124 0.528785 16.3312 0.441887 16.3677C0.35499 16.4042 0.276034 16.4577 0.209536 16.5252C0.143039 16.5927 0.0903043 16.6728 0.0543499 16.761C0.0183956 16.8492 -7.31664e-05 16.9437 2.17832e-07 17.0392V19.2108C-7.31664e-05 19.3063 0.0183956 19.4008 0.0543499 19.489C0.0903043 19.5772 0.143039 19.6573 0.209536 19.7248C0.276034 19.7923 0.35499 19.8458 0.441887 19.8823C0.528785 19.9188 0.621918 19.9376 0.71596 19.9375ZM0.71596 5.4375H15.3555C15.4495 5.43757 15.5426 5.41883 15.6295 5.38234C15.7164 5.34584 15.7954 5.29232 15.8619 5.22482C15.9284 5.15733 15.9811 5.07719 16.0171 4.98898C16.053 4.90078 16.0715 4.80625 16.0714 4.7108V2.5392C16.0715 2.44375 16.053 2.34922 16.0171 2.26102C15.9811 2.17281 15.9284 2.09267 15.8619 2.02518C15.7954 1.95768 15.7164 1.90416 15.6295 1.86767C15.5426 1.83117 15.4495 1.81243 15.3555 1.8125H0.71596C0.621918 1.81243 0.528785 1.83117 0.441887 1.86767C0.35499 1.90416 0.276034 1.95768 0.209536 2.02518C0.143039 2.09267 0.0903043 2.17281 0.0543499 2.26102C0.0183956 2.34922 -7.31664e-05 2.44375 2.17832e-07 2.5392V4.7108C-7.31664e-05 4.80625 0.0183956 4.90078 0.0543499 4.98898C0.0903043 5.07719 0.143039 5.15733 0.209536 5.22482C0.276034 5.29232 0.35499 5.34584 0.441887 5.38234C0.528785 5.41883 0.621918 5.43757 0.71596 5.4375ZM24.1071 9.0625H0.892857C0.656057 9.0625 0.428955 9.15798 0.261512 9.32793C0.0940688 9.49789 2.17832e-07 9.7284 2.17832e-07 9.96875V11.7812C2.17832e-07 12.0216 0.0940688 12.2521 0.261512 12.4221C0.428955 12.592 0.656057 12.6875 0.892857 12.6875H24.1071C24.3439 12.6875 24.571 12.592 24.7385 12.4221C24.9059 12.2521 25 12.0216 25 11.7812V9.96875C25 9.7284 24.9059 9.49789 24.7385 9.32793C24.571 9.15798 24.3439 9.0625 24.1071 9.0625ZM24.1071 23.5625H0.892857C0.656057 23.5625 0.428955 23.658 0.261512 23.8279C0.0940688 23.9979 2.17832e-07 24.2284 2.17832e-07 24.4687V26.2812C2.17832e-07 26.5216 0.0940688 26.7521 0.261512 26.9221C0.428955 27.092 0.656057 27.1875 0.892857 27.1875H24.1071C24.3439 27.1875 24.571 27.092 24.7385 26.9221C24.9059 26.7521 25 26.5216 25 26.2812V24.4687C25 24.2284 24.9059 23.9979 24.7385 23.8279C24.571 23.658 24.3439 23.5625 24.1071 23.5625Z" fill="#282828"/>
</g>
<defs>
<clipPath id="clip0_20_29">
<rect width="25" height="29" fill="white"/>
</clipPath>
</defs>
</svg>
