<svg width="59" height="60" viewBox="0 0 59 60" fill="none" xmlns="http://www.w3.org/2000/svg">
<path d="M16.6429 3.81572L18.3664 6.96588L40.4336 6.96687L42.1554 3.82103C33.979 -1.16001 24.2753 -0.822737 16.6429 3.81572Z" fill="#FE841A"/>
<path d="M12.7606 6.18539C4.58367 11.1656 0.00867188 20.2 0 29.4927L3.45234 29.4928L14.4839 9.33482L12.7606 6.18539Z" fill="#FE841A"/>
<path d="M46.0419 6.18292L44.316 9.33605L55.3459 29.495L58.7939 29.4951C58.7944 19.5344 53.6657 10.8371 46.0419 6.18292Z" fill="#FE841A"/>
<path d="M40.4337 6.96662C37.0829 5.31068 33.3439 4.38356 29.3991 4.38356C25.455 4.38356 21.7167 5.31019 18.3664 6.96563L29.3991 27.1279L40.4337 6.96662Z" fill="#FFE368"/>
<path d="M14.4839 9.33481C8.33155 13.8776 4.1271 21.1532 3.45245 29.4928L25.5148 29.4939L14.4839 9.33481Z" fill="#FFE368"/>
<path d="M55.346 29.495C54.6721 21.1553 50.4681 13.8792 44.3161 9.33604L33.2835 29.4939L55.346 29.495Z" fill="#FFE368"/>
<path d="M29.399 18.564C29.9452 18.564 30.3879 18.0969 30.3879 17.5208C30.3879 16.9446 29.9452 16.4776 29.399 16.4776C28.8529 16.4776 28.4102 16.9446 28.4102 17.5208C28.4102 18.0969 28.8529 18.564 29.399 18.564Z" fill="#AD4A38"/>
<path d="M8.00482 26.8111C8.55093 26.8111 8.99365 26.344 8.99365 25.7678C8.99365 25.1917 8.55093 24.7246 8.00482 24.7246C7.4587 24.7246 7.01599 25.1917 7.01599 25.7678C7.01599 26.344 7.4587 26.8111 8.00482 26.8111Z" fill="#AD4A38"/>
<path d="M16.6421 26.672C17.1882 26.672 17.6309 26.2049 17.6309 25.6288C17.6309 25.0526 17.1882 24.5855 16.6421 24.5855C16.096 24.5855 15.6533 25.0526 15.6533 25.6288C15.6533 26.2049 16.096 26.672 16.6421 26.672Z" fill="#AD4A38"/>
<path d="M45.1046 16.3912C45.6509 16.3912 46.0937 15.924 46.0937 15.3477C46.0937 14.7714 45.6509 14.3042 45.1046 14.3042C44.5584 14.3042 44.1156 14.7714 44.1156 15.3477C44.1156 15.924 44.5584 16.3912 45.1046 16.3912Z" fill="#AD4A38"/>
<path d="M29.399 13.6728C30.7305 13.6728 31.8098 12.5341 31.8098 11.1295C31.8098 9.7248 30.7305 8.58609 29.399 8.58609C28.0676 8.58609 26.9883 9.7248 26.9883 11.1295C26.9883 12.5341 28.0676 13.6728 29.399 13.6728Z" fill="#F63E31"/>
<path d="M12.3815 24.0373C13.713 24.0373 14.7923 22.8986 14.7923 21.494C14.7923 20.0893 13.713 18.9506 12.3815 18.9506C11.0501 18.9506 9.97076 20.0893 9.97076 21.494C9.97076 22.8986 11.0501 24.0373 12.3815 24.0373Z" fill="#F63E31"/>
<path d="M46.4167 24.0373C47.7481 24.0373 48.8274 22.8986 48.8274 21.494C48.8274 20.0893 47.7481 18.9506 46.4167 18.9506C45.0852 18.9506 44.0059 20.0893 44.0059 21.494C44.0059 22.8986 45.0852 24.0373 46.4167 24.0373Z" fill="#F63E31"/>
<path d="M7.28254 31.63H10.1985C11.8425 31.63 13.0425 31.984 13.7985 32.692C14.5665 33.388 14.9505 34.348 14.9505 35.572C14.9505 36.988 14.5365 38.074 13.7085 38.83C12.8805 39.586 11.6505 39.964 10.0185 39.964H9.31654V44.86H7.28254V31.63ZM10.0725 38.182C11.1285 38.182 11.8665 37.948 12.2865 37.48C12.7065 37.012 12.9165 36.448 12.9165 35.788C12.9165 35.08 12.7125 34.504 12.3045 34.06C11.8965 33.616 11.2125 33.394 10.2525 33.394H9.31654V38.182H10.0725ZM17.0615 31.63H19.0775V44.86H17.0615V31.63ZM27.4825 33.358H21.7045V31.63H30.6505L24.1165 43.096H30.3805V44.86H20.8585L27.4825 33.358ZM37.9239 33.358H32.1459V31.63H41.0919L34.5579 43.096H40.8219V44.86H31.2999L37.9239 33.358ZM47.8433 31.612L54.2153 44.86H51.8933L50.7593 42.268H44.6933L43.5593 44.86H41.3093L47.6453 31.612H47.8433ZM46.9433 37.246L45.5033 40.45H49.9673L48.5453 37.264L47.7713 35.446H47.7353L46.9433 37.246ZM9.11572 46.57H10.6837V50.77H14.3097V46.57H15.8777V56.86H14.3097V52.086H10.6837V56.86H9.11572V46.57ZM22.7758 57C21.8424 57 20.9791 56.7853 20.1858 56.356C19.4018 55.9173 18.7764 55.2966 18.3098 54.494C17.8431 53.6913 17.6098 52.758 17.6098 51.694C17.6098 50.6206 17.8431 49.6873 18.3098 48.894C18.7764 48.0913 19.4018 47.4753 20.1858 47.046C20.9791 46.6166 21.8424 46.402 22.7758 46.402C23.7091 46.402 24.5678 46.6166 25.3518 47.046C26.1451 47.4753 26.7751 48.0913 27.2418 48.894C27.7084 49.6873 27.9418 50.6206 27.9418 51.694C27.9418 52.758 27.7084 53.6913 27.2418 54.494C26.7751 55.2966 26.1451 55.9173 25.3518 56.356C24.5678 56.7853 23.7091 57 22.7758 57ZM22.7758 55.586C23.4198 55.586 24.0078 55.4366 24.5398 55.138C25.0718 54.83 25.4918 54.3866 25.7998 53.808C26.1171 53.22 26.2758 52.52 26.2758 51.708C26.2758 50.8866 26.1171 50.1866 25.7998 49.608C25.4918 49.02 25.0718 48.5766 24.5398 48.278C24.0171 47.9793 23.4291 47.83 22.7758 47.83C22.1224 47.83 21.5298 47.9793 20.9978 48.278C20.4658 48.5766 20.0458 49.02 19.7378 49.608C19.4298 50.1866 19.2758 50.8866 19.2758 51.708C19.2758 52.52 19.4344 53.22 19.7518 53.808C20.0691 54.3866 20.4938 54.83 21.0258 55.138C21.5671 55.4366 22.1504 55.586 22.7758 55.586ZM33.2342 57C31.9462 57 31.0129 56.6126 30.4342 55.838C29.8556 55.0633 29.5662 53.9386 29.5662 52.464V46.57H31.1342V52.492C31.1342 53.584 31.2976 54.368 31.6242 54.844C31.9509 55.3106 32.4876 55.544 33.2342 55.544C33.9809 55.544 34.5129 55.3153 34.8302 54.858C35.1569 54.3913 35.3202 53.6026 35.3202 52.492V46.57H36.9022V52.464C36.9022 53.9293 36.5942 55.054 35.9782 55.838C35.3716 56.6126 34.4569 57 33.2342 57ZM41.3278 57C40.7678 57 40.2124 56.902 39.6618 56.706C39.1111 56.51 38.7144 56.2906 38.4718 56.048L39.2138 54.718C39.4098 54.8953 39.7131 55.082 40.1238 55.278C40.5438 55.4646 40.9451 55.558 41.3278 55.558C41.8224 55.558 42.2238 55.4413 42.5318 55.208C42.8491 54.9746 43.0078 54.6526 43.0078 54.242C43.0078 53.9246 42.9238 53.6493 42.7558 53.416C42.5878 53.1826 42.3824 52.9913 42.1398 52.842C41.8971 52.6833 41.5518 52.492 41.1038 52.268C40.5718 52.0066 40.2078 51.8106 40.0118 51.68C39.1064 51.0733 38.6538 50.2333 38.6538 49.16C38.6538 48.2733 38.9478 47.5966 39.5358 47.13C40.1238 46.654 40.8658 46.416 41.7618 46.416C42.7231 46.416 43.5398 46.6913 44.2118 47.242L43.4698 48.516C43.2924 48.3293 43.0404 48.1706 42.7138 48.04C42.3964 47.9 42.0558 47.83 41.6918 47.83C41.2251 47.83 40.8564 47.9373 40.5858 48.152C40.3244 48.3573 40.1938 48.6653 40.1938 49.076C40.1938 49.3653 40.2778 49.6266 40.4458 49.86C40.6138 50.084 40.8238 50.28 41.0758 50.448C41.3371 50.616 41.6871 50.8213 42.1258 51.064C42.5458 51.2973 42.8678 51.484 43.0918 51.624C43.3158 51.7546 43.5258 51.9133 43.7218 52.1C43.9924 52.3426 44.2118 52.632 44.3798 52.968C44.5478 53.304 44.6318 53.6726 44.6318 54.074C44.6318 54.6993 44.4871 55.2313 44.1978 55.67C43.9178 56.1086 43.5258 56.44 43.0218 56.664C42.5271 56.888 41.9624 57 41.3278 57ZM46.3032 46.57H50.8112V47.942H47.8572V50.784H50.2372V52.184H47.8572V55.474H51.2732V56.86H46.3032V46.57Z" fill="#FF0000"/>
</svg>
